<mxfile host="app.diagrams.net" modified="2023-09-04T16:18:17.060Z" agent="Mozilla/5.0 (Windows NT 10.0; Win64; x64) AppleWebKit/537.36 (KHTML, like Gecko) Chrome/116.0.0.0 Safari/537.36 Edg/116.0.1938.69" etag="PpQVB8T69stx5RhlmDK2" version="21.7.2" type="github">
  <diagram name="Page-1" id="kwMZ8voaRQNg3QuGFfXh">
    <mxGraphModel dx="1146" dy="1742" grid="1" gridSize="10" guides="1" tooltips="1" connect="1" arrows="1" fold="1" page="1" pageScale="1" pageWidth="850" pageHeight="1100" math="0" shadow="0">
      <root>
        <mxCell id="0" />
        <mxCell id="1" parent="0" />
        <mxCell id="YRdueK4l8fZmab3wNH2k-6" style="edgeStyle=orthogonalEdgeStyle;rounded=0;orthogonalLoop=1;jettySize=auto;html=1;exitX=1;exitY=0.5;exitDx=0;exitDy=0;entryX=0;entryY=0.5;entryDx=0;entryDy=0;" edge="1" parent="1" source="YRdueK4l8fZmab3wNH2k-1" target="YRdueK4l8fZmab3wNH2k-2">
          <mxGeometry relative="1" as="geometry" />
        </mxCell>
        <mxCell id="YRdueK4l8fZmab3wNH2k-1" value="Início" style="rounded=1;whiteSpace=wrap;html=1;" vertex="1" parent="1">
          <mxGeometry x="80" y="-1030" width="140" height="40" as="geometry" />
        </mxCell>
        <mxCell id="YRdueK4l8fZmab3wNH2k-7" style="edgeStyle=orthogonalEdgeStyle;rounded=0;orthogonalLoop=1;jettySize=auto;html=1;exitX=1;exitY=0.5;exitDx=0;exitDy=0;entryX=0;entryY=0.5;entryDx=0;entryDy=0;" edge="1" parent="1" source="YRdueK4l8fZmab3wNH2k-2" target="YRdueK4l8fZmab3wNH2k-4">
          <mxGeometry relative="1" as="geometry" />
        </mxCell>
        <mxCell id="YRdueK4l8fZmab3wNH2k-2" value="Chegar em casa" style="rounded=0;whiteSpace=wrap;html=1;" vertex="1" parent="1">
          <mxGeometry x="305" y="-1040" width="120" height="60" as="geometry" />
        </mxCell>
        <mxCell id="YRdueK4l8fZmab3wNH2k-3" value="Fim" style="rounded=1;whiteSpace=wrap;html=1;" vertex="1" parent="1">
          <mxGeometry x="635" y="-590" width="140" height="40" as="geometry" />
        </mxCell>
        <mxCell id="YRdueK4l8fZmab3wNH2k-10" style="edgeStyle=orthogonalEdgeStyle;rounded=0;orthogonalLoop=1;jettySize=auto;html=1;exitX=0.5;exitY=1;exitDx=0;exitDy=0;entryX=0.5;entryY=0;entryDx=0;entryDy=0;" edge="1" parent="1" source="YRdueK4l8fZmab3wNH2k-4" target="YRdueK4l8fZmab3wNH2k-9">
          <mxGeometry relative="1" as="geometry" />
        </mxCell>
        <mxCell id="YRdueK4l8fZmab3wNH2k-14" style="edgeStyle=orthogonalEdgeStyle;rounded=0;orthogonalLoop=1;jettySize=auto;html=1;exitX=1;exitY=0.5;exitDx=0;exitDy=0;entryX=1;entryY=0.5;entryDx=0;entryDy=0;" edge="1" parent="1" source="YRdueK4l8fZmab3wNH2k-4" target="YRdueK4l8fZmab3wNH2k-3">
          <mxGeometry relative="1" as="geometry" />
        </mxCell>
        <mxCell id="YRdueK4l8fZmab3wNH2k-4" value="Família está com fome?" style="rhombus;whiteSpace=wrap;html=1;" vertex="1" parent="1">
          <mxGeometry x="500" y="-1055" width="150" height="90" as="geometry" />
        </mxCell>
        <mxCell id="YRdueK4l8fZmab3wNH2k-13" style="edgeStyle=orthogonalEdgeStyle;rounded=0;orthogonalLoop=1;jettySize=auto;html=1;exitX=1;exitY=0.5;exitDx=0;exitDy=0;entryX=0.5;entryY=0;entryDx=0;entryDy=0;" edge="1" parent="1" source="YRdueK4l8fZmab3wNH2k-5" target="YRdueK4l8fZmab3wNH2k-3">
          <mxGeometry relative="1" as="geometry">
            <mxPoint x="720" y="-765.1578947368421" as="targetPoint" />
            <Array as="points">
              <mxPoint x="705" y="-765" />
            </Array>
          </mxGeometry>
        </mxCell>
        <mxCell id="YRdueK4l8fZmab3wNH2k-22" style="edgeStyle=orthogonalEdgeStyle;rounded=0;orthogonalLoop=1;jettySize=auto;html=1;exitX=0;exitY=0.5;exitDx=0;exitDy=0;entryX=1;entryY=0.5;entryDx=0;entryDy=0;" edge="1" parent="1" source="YRdueK4l8fZmab3wNH2k-5" target="YRdueK4l8fZmab3wNH2k-19">
          <mxGeometry relative="1" as="geometry" />
        </mxCell>
        <mxCell id="YRdueK4l8fZmab3wNH2k-5" value="Fritar ovo?" style="rhombus;whiteSpace=wrap;html=1;" vertex="1" parent="1">
          <mxGeometry x="500" y="-810" width="150" height="90" as="geometry" />
        </mxCell>
        <mxCell id="YRdueK4l8fZmab3wNH2k-11" style="edgeStyle=orthogonalEdgeStyle;rounded=0;orthogonalLoop=1;jettySize=auto;html=1;exitX=0.5;exitY=1;exitDx=0;exitDy=0;" edge="1" parent="1" source="YRdueK4l8fZmab3wNH2k-9" target="YRdueK4l8fZmab3wNH2k-5">
          <mxGeometry relative="1" as="geometry" />
        </mxCell>
        <mxCell id="YRdueK4l8fZmab3wNH2k-9" value="Ir para a cozinha" style="rounded=0;whiteSpace=wrap;html=1;" vertex="1" parent="1">
          <mxGeometry x="515" y="-920" width="120" height="60" as="geometry" />
        </mxCell>
        <mxCell id="YRdueK4l8fZmab3wNH2k-15" value="NÃO" style="text;html=1;strokeColor=none;fillColor=none;align=center;verticalAlign=middle;whiteSpace=wrap;rounded=0;" vertex="1" parent="1">
          <mxGeometry x="650" y="-1040" width="60" height="30" as="geometry" />
        </mxCell>
        <mxCell id="YRdueK4l8fZmab3wNH2k-17" value="SIM" style="text;html=1;strokeColor=none;fillColor=none;align=center;verticalAlign=middle;whiteSpace=wrap;rounded=0;" vertex="1" parent="1">
          <mxGeometry x="515" y="-965" width="60" height="30" as="geometry" />
        </mxCell>
        <mxCell id="YRdueK4l8fZmab3wNH2k-18" value="NÃO" style="text;html=1;strokeColor=none;fillColor=none;align=center;verticalAlign=middle;whiteSpace=wrap;rounded=0;" vertex="1" parent="1">
          <mxGeometry x="640" y="-790" width="60" height="30" as="geometry" />
        </mxCell>
        <mxCell id="YRdueK4l8fZmab3wNH2k-23" style="edgeStyle=orthogonalEdgeStyle;rounded=0;orthogonalLoop=1;jettySize=auto;html=1;exitX=0;exitY=0.5;exitDx=0;exitDy=0;entryX=1;entryY=0.5;entryDx=0;entryDy=0;" edge="1" parent="1" source="YRdueK4l8fZmab3wNH2k-19" target="YRdueK4l8fZmab3wNH2k-20">
          <mxGeometry relative="1" as="geometry" />
        </mxCell>
        <mxCell id="YRdueK4l8fZmab3wNH2k-19" value="Pegar frigideira, espátula, ovos e manteiga" style="rounded=0;whiteSpace=wrap;html=1;" vertex="1" parent="1">
          <mxGeometry x="297.5" y="-795" width="135" height="60" as="geometry" />
        </mxCell>
        <mxCell id="YRdueK4l8fZmab3wNH2k-24" style="edgeStyle=orthogonalEdgeStyle;rounded=0;orthogonalLoop=1;jettySize=auto;html=1;exitX=0.5;exitY=1;exitDx=0;exitDy=0;entryX=0.5;entryY=0;entryDx=0;entryDy=0;" edge="1" parent="1" source="YRdueK4l8fZmab3wNH2k-20" target="YRdueK4l8fZmab3wNH2k-21">
          <mxGeometry relative="1" as="geometry" />
        </mxCell>
        <mxCell id="YRdueK4l8fZmab3wNH2k-20" value="Ligar o fogão, colocar a frigideira, quebrar e colocar os ovos e a manteiga" style="rounded=0;whiteSpace=wrap;html=1;" vertex="1" parent="1">
          <mxGeometry x="85" y="-807.5" width="135" height="85" as="geometry" />
        </mxCell>
        <mxCell id="YRdueK4l8fZmab3wNH2k-25" style="edgeStyle=orthogonalEdgeStyle;rounded=0;orthogonalLoop=1;jettySize=auto;html=1;exitX=1;exitY=0.5;exitDx=0;exitDy=0;entryX=0;entryY=0.5;entryDx=0;entryDy=0;" edge="1" parent="1" source="YRdueK4l8fZmab3wNH2k-21" target="YRdueK4l8fZmab3wNH2k-3">
          <mxGeometry relative="1" as="geometry" />
        </mxCell>
        <mxCell id="YRdueK4l8fZmab3wNH2k-21" value="Pegar os ovos fritos e pratos e servir a família" style="rounded=0;whiteSpace=wrap;html=1;" vertex="1" parent="1">
          <mxGeometry x="85" y="-596.25" width="135" height="52.5" as="geometry" />
        </mxCell>
        <mxCell id="YRdueK4l8fZmab3wNH2k-26" value="SIM" style="text;html=1;strokeColor=none;fillColor=none;align=center;verticalAlign=middle;whiteSpace=wrap;rounded=0;" vertex="1" parent="1">
          <mxGeometry x="440" y="-790" width="60" height="30" as="geometry" />
        </mxCell>
      </root>
    </mxGraphModel>
  </diagram>
</mxfile>
